<svg xmlns="http://www.w3.org/2000/svg" width="240" height="300" viewBox="0 0 240 300">
  <line x1="120" y1="86" x2="120" y2="74" stroke="#1db954" stroke-width="5" stroke-linecap="round"/>
  <path d="M120 72 V42" stroke="#1db954" stroke-width="5" stroke-linecap="round"/>
  <path d="M120 42 c10 1 16 7 15 16" fill="none" stroke="#1db954" stroke-width="5" stroke-linecap="round"/>
  <ellipse cx="111" cy="72" rx="10" ry="7.5" fill="#1db954" transform="rotate(-18 111 72)"/>
  <rect x="42" y="120" width="8" height="34" rx="4" fill="#159443"/>
  <rect x="190" y="120" width="8" height="34" rx="4" fill="#159443"/>
  <rect x="48" y="86" width="144" height="116" rx="22" fill="#1db954"/>
  <rect x="60" y="104" width="120" height="64" rx="14" fill="#08130c"/>
  <rect x="82" y="144" width="5" height="14" rx="2.5" fill="#5be59a"/>
  <rect x="91" y="132" width="5" height="26" rx="2.5" fill="#5be59a"/>
  <rect x="100" y="138" width="5" height="20" rx="2.5" fill="#5be59a"/>
  <rect x="109" y="124" width="5" height="34" rx="2.5" fill="#5be59a"/>
  <rect x="118" y="134" width="5" height="24" rx="2.5" fill="#5be59a"/>
  <rect x="127" y="120" width="5" height="38" rx="2.5" fill="#5be59a"/>
  <rect x="136" y="136" width="5" height="22" rx="2.5" fill="#5be59a"/>
  <rect x="145" y="130" width="5" height="28" rx="2.5" fill="#5be59a"/>
  <rect x="154" y="142" width="5" height="16" rx="2.5" fill="#5be59a"/>
  <rect x="108" y="202" width="24" height="10" rx="5" fill="#159443"/>
  <rect x="70" y="210" width="100" height="32" rx="13" fill="#1db954"/>
  <rect x="100" y="222" width="6" height="8" rx="3" fill="#08130c"/>
  <rect x="110" y="217" width="6" height="14" rx="3" fill="#08130c"/>
  <rect x="120" y="220" width="6" height="10" rx="3" fill="#08130c"/>
  <rect x="130" y="216" width="6" height="15" rx="3" fill="#08130c"/>
  <rect x="140" y="223" width="6" height="8" rx="3" fill="#08130c"/>
  <rect x="82" y="242" width="28" height="12" rx="6" fill="#159443"/>
  <rect x="130" y="242" width="28" height="12" rx="6" fill="#159443"/>
</svg>
